<svg width="1281" height="371" viewBox="0 0 1281 371" fill="none" xmlns="http://www.w3.org/2000/svg">
<path d="M333.035 191.73L321.687 158.623H248.744L237.396 191.73H189.976C189.371 191.73 188.956 191.12 189.178 190.557L261.855 6.19986C262.114 5.54392 262.747 5.11279 263.452 5.11279H306.9C307.605 5.11279 308.239 5.54392 308.497 6.19986L381.175 190.557C381.397 191.12 380.982 191.73 380.376 191.73H333.035ZM306.738 119.27L285.294 61.3323L263.693 119.27H306.738Z" fill="white"/>
<path d="M459.266 196.774C450.559 196.774 441.932 195.667 433.78 193.531C425.627 191.396 418.741 188.786 413.359 185.78C408.135 182.854 403.465 179.848 399.429 176.764C395.313 173.6 392.385 170.99 390.485 168.696L386.172 164.049C385.752 163.597 385.766 162.894 386.204 162.459L413.913 134.923L416.367 137.692C417.475 139.036 419.137 140.697 421.195 142.754C422.461 144.019 425.865 146.471 434.729 150.821C441.695 154.222 449.055 155.962 456.575 155.962C465.123 155.962 471.771 153.985 476.441 150.188C480.953 146.471 483.09 141.804 483.09 136.11C483.09 131.285 480.636 127.41 475.57 124.325C469.713 120.766 462.432 117.76 453.963 115.387C445.019 112.856 436.075 109.851 427.21 106.45C417.871 102.891 409.877 96.8795 403.307 88.5747C396.659 80.1908 393.255 69.5132 393.255 56.8583C393.255 41.1978 399.587 27.5938 412.172 16.5207C424.598 5.60587 440.824 0.0693359 460.532 0.0693359C468.21 0.0693359 475.808 1.01846 483.01 2.75851C490.213 4.57765 496.228 6.71317 500.898 9.16506C505.489 11.5379 509.525 14.0688 513.008 16.5207C516.649 19.1308 519.182 21.4245 520.844 23.4019L524.058 26.9706C524.657 27.6353 524.644 28.6484 524.03 29.2985L496.862 58.0447L494.329 55.1183C493.379 54.011 492.033 52.6664 490.292 51.0054C489.184 49.9772 486.493 48.079 479.686 44.6779C474.383 42.0679 468.764 40.7233 463.144 40.7233C456.575 40.7233 451.272 42.3842 447.393 45.6271C443.673 48.7908 441.853 52.4291 441.853 56.7792C441.853 61.6039 444.306 65.4004 449.372 68.485C455.229 71.9651 462.432 75.0498 470.901 77.5017C479.686 80.0326 488.709 83.0382 497.574 86.5183C506.993 90.0775 515.066 96.0886 521.635 104.393C528.284 112.777 531.687 123.455 531.687 136.11C531.687 153.906 525.118 168.696 512.137 180.007C499.394 191.08 481.586 196.774 459.266 196.774Z" fill="white"/>
<path d="M595.537 5.11279H552.316C551.368 5.11279 550.6 5.88137 550.6 6.82945V190.014C550.6 190.962 551.368 191.73 552.316 191.73H595.537C596.485 191.73 597.254 190.962 597.254 190.014V6.82945C597.254 5.88136 596.485 5.11279 595.537 5.11279Z" fill="white"/>
<path d="M753.91 191.73L669.704 84.1324V190.014C669.704 190.962 668.935 191.73 667.987 191.73H625.454C624.506 191.73 623.737 190.962 623.737 190.014V6.82945C623.737 5.88137 624.506 5.11279 625.454 5.11279H661.85C662.378 5.11279 662.877 5.35585 663.202 5.7718L746.972 112.867V6.82944C746.972 5.88136 747.74 5.11279 748.688 5.11279H790.985C791.933 5.11279 792.702 5.88136 792.702 6.82945V190.014C792.702 190.962 791.933 191.73 790.985 191.73H753.91Z" fill="white"/>
<path d="M910.597 196.774C856.708 196.774 812.875 152.658 812.875 98.4218C812.875 44.1856 856.708 0.0693359 910.597 0.0693359C964.485 0.0693359 1008.32 44.1856 1008.32 98.4218C1008.32 152.658 964.485 196.774 910.597 196.774ZM910.597 42.2091C879.804 42.2091 854.745 67.4297 854.745 98.4218C854.745 129.414 879.804 154.635 910.597 154.635C941.39 154.635 966.449 129.414 966.449 98.4218C966.449 67.4297 941.469 42.2091 910.597 42.2091Z" fill="white"/>
<path d="M148.031 123.342C138.272 143.029 118.361 156.392 94.1204 154.494C69.1719 152.517 48.001 133.225 43.6724 108.398C37.6911 74.0836 63.2692 43.4059 96.7176 42.2199C119.069 41.4292 138.036 54.0007 147.716 72.7394H192.419C181.086 30.7553 143.781 0.156645 99.0786 0.0775791C46.3483 -0.0805533 1.96038 43.3268 0.858551 96.2221C-0.321979 153.15 46.427 198.771 102.305 196.715C146.457 195.055 181.794 164.219 192.498 123.342H148.031Z" fill="white"/>
<path d="M0.83667 335.476V227.894C0.83667 227.42 1.22096 227.036 1.695 227.036H49.6165C64.1404 227.036 76.35 231.656 85.9262 240.738C95.5822 249.899 100.45 261.37 100.45 274.832C100.45 288.295 95.5822 299.766 86.006 308.927C76.4298 318.008 64.2202 322.629 49.6963 322.629H34.9917V366.92H1.695C1.22096 366.92 0.83667 366.535 0.83667 366.061V335.476ZM48.6589 291.481C53.7662 291.481 57.9159 289.888 61.3473 286.622C64.699 283.436 66.3748 279.532 66.3748 274.832C66.3748 270.132 64.7788 266.229 61.3473 262.963C57.9159 259.697 53.846 258.104 48.6589 258.104H34.9917V291.402H48.6589V291.481Z" fill="#ECA73F"/>
<path d="M333.609 366.999L307.615 319.84H297.238V366.141C297.238 366.615 296.854 366.999 296.38 366.999H263.968C263.494 366.999 263.11 366.615 263.11 366.141V227.894C263.11 227.42 263.494 227.036 263.968 227.036H314.871C328.905 227.036 340.626 231.577 349.796 240.578C359.046 249.58 363.671 260.812 363.671 273.876C363.671 279.532 362.794 284.949 360.96 289.888C359.205 294.827 357.053 298.89 354.581 301.996C352.188 305.024 349.717 307.573 347.245 309.803C344.693 312.034 342.46 313.547 340.547 314.424L369.564 365.718C369.888 366.291 369.475 366.999 368.817 366.999H333.609ZM313.994 288.693C318.619 288.693 322.366 287.259 325.317 284.392C328.267 281.524 329.782 278.098 329.782 273.876C329.782 269.256 328.347 265.592 325.317 262.644C322.287 259.697 318.619 258.183 313.994 258.183H298.176C297.702 258.183 297.318 258.568 297.318 259.042V287.835C297.318 288.309 297.702 288.693 298.176 288.693H313.994Z" fill="#ECA73F"/>
<path d="M405.799 366.999V258.183H373.219C372.745 258.183 372.361 257.799 372.361 257.325V227.894C372.361 227.42 372.745 227.036 373.219 227.036H472.377C472.851 227.036 473.235 227.42 473.235 227.894V257.325C473.235 257.799 472.851 258.183 472.377 258.183H439.876V366.999H405.799Z" fill="#ECA73F"/>
<path d="M546.227 370.782C528.822 370.782 514.12 364.93 502.516 353.305C490.913 341.76 485.032 327.169 485.032 310.013V227.894C485.032 227.42 485.417 227.036 485.891 227.036H518.109C518.583 227.036 518.968 227.42 518.968 227.894V310.013C518.968 318.431 521.59 325.245 526.994 331.017C532.399 336.71 538.677 339.435 546.227 339.435C553.777 339.435 560.055 336.71 565.38 331.017C570.784 325.325 573.407 318.511 573.407 310.013V227.894C573.407 227.42 573.791 227.036 574.265 227.036H606.484C606.958 227.036 607.342 227.42 607.342 227.894V310.013C607.342 327.169 601.461 341.76 589.858 353.305C578.334 364.93 563.632 370.782 546.227 370.782Z" fill="#ECA73F"/>
<path d="M641.233 349.351C655.839 363.586 673.957 370.783 695.188 370.783C702.531 370.783 709.794 369.823 716.738 367.824C723.602 365.905 729.349 363.745 733.659 361.346C737.889 359.027 742.039 356.228 745.871 353.189C749.782 350.07 752.256 347.911 753.453 346.552L756.429 343.197C756.569 343.04 756.646 342.837 756.646 342.627V290.15C756.646 289.676 756.261 289.292 755.787 289.292H698.461V315.683H722.565V330.237L720.49 331.997C718.734 333.516 715.541 335.196 710.912 336.875C706.203 338.554 700.935 339.434 695.268 339.434C683.216 339.434 673.478 335.516 665.417 327.438C657.356 319.361 653.445 309.605 653.445 297.529C653.445 285.453 657.356 275.697 665.417 267.62C673.478 259.543 683.216 255.624 695.268 255.624C699.578 255.624 703.808 256.264 707.958 257.623C712.109 258.983 715.541 260.502 718.015 262.022C720.489 263.541 722.884 265.381 725.039 267.46C727.753 270.019 728.79 271.218 729.189 271.778L730.786 273.938L732.542 276.337L754.043 254.793C754.345 254.49 754.378 254.01 754.119 253.669L751.059 249.626C749.462 247.627 747.148 245.308 743.795 242.509C740.523 239.87 736.772 237.071 732.621 234.432C728.311 231.713 722.804 229.313 716.179 227.394C709.555 225.475 702.451 224.515 695.188 224.515C673.957 224.515 655.839 231.713 641.233 245.947C626.627 260.182 619.204 277.536 619.204 297.609C619.204 317.682 626.627 335.116 641.233 349.351Z" fill="#ECA73F"/>
<path d="M912.371 366.999C911.739 366.999 911.227 366.487 911.227 365.855V227.894C911.227 227.42 911.611 227.036 912.085 227.036H944.626C945.1 227.036 945.485 227.42 945.485 227.894V335.852H1007.17C1007.81 335.852 1008.32 336.365 1008.32 336.997V365.855C1008.32 366.487 1007.81 366.999 1007.17 366.999H912.371Z" fill="#ECA73F"/>
<path d="M179.76 370.783C139.432 370.783 106.626 337.977 106.626 297.649C106.626 257.321 139.432 224.515 179.76 224.515C220.088 224.515 252.894 257.321 252.894 297.649C252.894 337.977 220.088 370.783 179.76 370.783ZM179.76 255.721C156.716 255.721 137.912 274.525 137.912 297.569C137.912 320.613 156.716 339.417 179.76 339.417C202.804 339.417 221.608 320.613 221.608 297.569C221.608 274.525 202.885 255.721 179.76 255.721Z" fill="#ECA73F"/>
<path d="M866.773 366.999L858.216 342.145H802.922L794.284 366.999H757.4C757.096 366.999 756.888 366.692 757.002 366.41L812.957 227.574C813.088 227.249 813.403 227.036 813.753 227.036H847.302C847.653 227.036 847.969 227.25 848.099 227.577L903.428 366.411C903.54 366.693 903.333 366.999 903.029 366.999H866.773ZM846.834 312.591L830.609 269.176L814.223 312.591H846.834Z" fill="#ECA73F"/>
<path d="M1075.12 335.536V229.25C1075.12 228.027 1076.11 227.036 1077.34 227.036H1123.93C1138.46 227.036 1150.68 231.659 1160.26 240.745C1169.92 249.911 1174.79 261.389 1174.79 274.859C1174.79 288.329 1169.92 299.806 1160.34 308.972C1150.76 318.059 1138.54 322.682 1124.01 322.682H1109.3V366.997H1077.34C1076.11 366.997 1075.12 366.006 1075.12 364.784V335.536ZM1122.97 291.517C1128.08 291.517 1132.23 289.923 1135.67 286.655C1139.02 283.467 1140.7 279.561 1140.7 274.859C1140.7 270.156 1139.1 266.251 1135.67 262.983C1132.23 259.715 1128.16 258.121 1122.97 258.121H1109.3V291.437H1122.97V291.517Z" fill="#ECA73F"/>
<path d="M1213.36 367.077V258.201H1182.12C1180.9 258.201 1179.91 257.21 1179.91 255.987V229.25C1179.91 228.027 1180.9 227.036 1182.12 227.036H1278.62C1279.85 227.036 1280.84 228.027 1280.84 229.25V255.987C1280.84 257.21 1279.85 258.201 1278.62 258.201H1247.46V367.077H1213.36Z" fill="#ECA73F"/>
<ellipse cx="1041.72" cy="344.716" rx="22.2837" ry="22.2837" fill="#ECA73F"/>
</svg>
