<svg width="39" height="30" viewBox="0 0 39 30" fill="none" xmlns="http://www.w3.org/2000/svg">
<g>
<path d="M10.7269 25.9266L9.81927 26.3285C9.5407 25.7717 9.02489 25.2975 8.27217 25.2975C7.29229 25.2975 6.56039 26.0502 6.56039 27.1121V27.1329C6.56039 28.2052 7.32353 28.9476 8.29299 28.9476C9.07664 28.9476 9.61295 28.463 9.85051 27.8652L10.7786 28.1948C10.4073 29.2466 9.4997 29.9479 8.27249 29.9479C6.68438 29.9479 5.4985 28.7516 5.4985 27.143V27.1225C5.4985 25.524 6.67429 24.3072 8.27249 24.3072C9.44828 24.3072 10.3146 24.9672 10.7269 25.9262V25.9266Z" fill="#000000"/>
<path d="M17.1308 24.4208V29.835H16.0891V28.876C15.6972 29.5359 15.0477 29.9483 14.1505 29.9483C12.5519 29.9483 11.4279 28.752 11.4279 27.1434V27.1229C11.4279 25.5243 12.5418 24.3075 14.1505 24.3075C15.0369 24.3075 15.6969 24.7098 16.0891 25.3701V24.4211H17.1308V24.4208ZM16.0067 27.1124C16.0067 26.0505 15.2231 25.2978 14.2432 25.2978C13.2633 25.2978 12.4901 26.0505 12.4901 27.1124V27.1333C12.4901 28.2056 13.3047 28.9479 14.2637 28.9479C15.2228 28.9479 16.0067 28.2056 16.0067 27.1333V27.1124Z" fill="#000000"/>
<path d="M22.1938 24.8543L21.9153 25.7407C21.6471 25.5552 21.0389 25.1634 20.4922 25.1533C19.9249 25.1429 19.5025 25.4215 19.5435 25.8543C19.5744 26.1225 19.8013 26.3493 20.4512 26.5966C21.3897 26.9474 22.3484 27.3084 22.4106 28.3501C22.4516 29.3299 21.6579 29.9899 20.3584 30C19.3476 30 18.5021 29.4637 18.1513 29.0309L18.5636 28.2059C18.9451 28.6078 19.6154 29.1135 20.3581 29.1236C20.9976 29.1236 21.4099 28.8145 21.3585 28.381C21.3067 27.9068 20.7808 27.7519 20.3477 27.5664C18.894 27.0506 18.5119 26.6279 18.4914 25.8234C18.4709 24.947 19.2646 24.2252 20.5026 24.2662C21.2449 24.2867 21.8743 24.5959 22.1938 24.8539V24.8543Z" fill="#000000"/>
<path d="M24.6681 23.0185C24.6681 23.3589 24.3996 23.6267 24.0696 23.6267C23.7188 23.6267 23.4507 23.3586 23.4507 23.0185C23.4507 22.6989 23.7087 22.3995 24.0696 22.3995C24.41 22.3995 24.6681 22.6986 24.6681 23.0185ZM24.565 29.835H23.5232V24.4208H24.565V29.835Z" fill="#000000"/>
<path d="M30.7208 26.6383V29.835H29.6794V26.7206C29.6794 25.7925 29.2154 25.3079 28.4109 25.3079C27.6579 25.3079 27.0805 25.8442 26.9771 26.6484V29.835H25.9357V24.4208H26.9771V25.3183C27.2247 24.7921 27.8746 24.3179 28.5857 24.3179C30.0195 24.3179 30.7205 25.1429 30.7205 26.6383H30.7208Z" fill="#000000"/>
<path d="M31.6591 27.1434V27.1229C31.6591 25.5243 32.8654 24.3075 34.4744 24.3075C36.0833 24.3075 37.2793 25.4937 37.2793 27.1023V27.1229C37.2793 28.7315 36.0726 29.9483 34.4744 29.9483C32.8762 29.9483 31.6591 28.752 31.6591 27.1434ZM36.2275 27.1333V27.1124C36.2275 26.0505 35.4438 25.2978 34.464 25.2978C33.4841 25.2978 32.7109 26.0505 32.7109 27.1124V27.1333C32.7109 28.2056 33.5254 28.9479 34.4845 28.9479C35.4435 28.9479 36.2275 28.2056 36.2275 27.1333Z" fill="#000000"/>
<path opacity="0.88" d="M6.16259 0.00184491C2.67265 0.0893863 -0.0853863 2.98899 0.00182965 6.4786C0.0418579 8.07973 0.688167 9.60601 1.81026 10.7486L1.80831 10.7506L1.81026 10.7525C-0.619096 13.2264 -0.599895 17.1964 1.85322 19.6472C3.0264 20.8588 4.64673 21.5341 6.33345 21.5139C9.68508 21.5071 12.4496 18.887 12.6354 15.5406V15.044C12.6195 13.4393 11.9683 11.9062 10.8247 10.7805C11.9302 9.69355 12.5759 8.22325 12.628 6.67386C12.6315 6.54304 12.639 6.43109 12.639 6.32305V6.16261C12.5518 2.67267 9.65221 -0.085371 6.16259 0.00184491ZM4.56765 4.52341C5.02488 4.03916 5.66403 3.7684 6.32987 3.77686C7.00677 3.76743 7.65796 4.03753 8.12951 4.52341C9.11394 5.50719 9.11459 7.10278 8.13114 8.08722C8.13049 8.08787 8.13016 8.08819 8.12951 8.08884C7.65698 8.57341 7.00677 8.8432 6.32987 8.83539C5.66436 8.8419 5.02586 8.57146 4.56765 8.08884C3.58647 7.10278 3.58647 5.50947 4.56765 4.52341ZM8.13081 16.9393C8.13081 16.9393 8.12983 16.9403 8.12918 16.9409C7.6534 17.4183 7.00351 17.6813 6.32987 17.6689C5.66696 17.6803 5.02911 17.4167 4.56765 16.9409C3.58647 15.9549 3.58647 14.3616 4.56765 13.3755C4.93702 12.9843 5.42484 12.7328 5.94976 12.6547C6.07603 12.6608 6.20262 12.6638 6.32987 12.6625C6.45971 12.6641 6.58924 12.6612 6.71811 12.6547C7.25149 12.7324 7.74908 12.9837 8.12951 13.3758C9.11394 14.3596 9.11459 15.9552 8.13114 16.9396L8.13081 16.9393Z" fill="#000000"/>
<path opacity="0.88" d="M38.4388 6.32673V6.16239C38.3516 2.67278 35.452 -0.0852642 31.962 0.00195172C28.4724 0.0891676 25.714 2.9891 25.8016 6.47871C25.8416 8.07984 26.4882 9.60612 27.6103 10.749L27.6084 10.751L27.6103 10.7529C25.181 13.2269 25.2002 17.1968 27.6533 19.6477C28.8265 20.8592 30.4468 21.5345 32.1335 21.5143C35.4852 21.5075 38.2497 18.8875 38.4355 15.541V15.0444C38.4193 13.4397 37.7681 11.9069 36.6248 10.7809C37.731 9.69431 38.3766 8.22401 38.428 6.6743C38.4316 6.54347 38.4391 6.43543 38.4391 6.32706L38.4388 6.32673ZM30.3671 4.53848C30.8243 4.05424 31.4635 3.78348 32.1293 3.79194C32.8065 3.78218 33.4574 4.05229 33.9286 4.53848C34.913 5.52226 34.914 7.11786 33.9302 8.10229C33.9296 8.10294 33.9293 8.10327 33.9286 8.10392C33.5046 8.54033 32.936 8.80197 32.3337 8.84396C32.2657 8.84265 32.1973 8.842 32.129 8.84298C32.0629 8.842 31.9968 8.84265 31.9308 8.84363C31.3375 8.80132 30.7784 8.53935 30.3668 8.1036C29.3856 7.11753 29.3856 5.52422 30.3668 4.53816L30.3671 4.53848ZM33.9319 16.9528C33.9319 16.9528 33.9299 16.9547 33.9289 16.9557C33.4571 17.4412 32.8065 17.7113 32.1296 17.7022C31.4638 17.71 30.825 17.4396 30.3674 16.9557C29.3869 15.9709 29.3869 14.3786 30.3674 13.3942C30.7618 12.9747 31.2929 12.7156 31.8602 12.6593C31.9497 12.6623 32.0395 12.6636 32.1296 12.6626C32.2227 12.6639 32.3151 12.6626 32.4079 12.6593C32.9832 12.7156 33.5238 12.974 33.9293 13.3942C34.9127 14.376 34.914 15.9693 33.9322 16.9528H33.9319Z" fill="#000000"/>
<path opacity="0.88" d="M19.0749 0.00227896C15.5846 0.0917729 12.8276 2.99365 12.9171 6.48392C12.9581 8.08309 13.6037 9.60709 14.7239 10.749L14.7274 10.7529C12.2961 13.2259 12.3147 17.1972 14.7685 19.6477C15.942 20.8596 17.5626 21.5348 19.2493 21.5147C22.6016 21.5078 25.3665 18.8871 25.5523 15.5401V15.047C25.5364 13.442 24.8852 11.9086 23.7413 10.7826C24.8464 9.69496 25.4918 8.22466 25.5448 6.67495C25.5484 6.53306 25.5559 6.4286 25.5559 6.32023V6.15979C25.467 2.66952 22.5652 -0.087215 19.0749 0.00227896ZM17.4835 4.53555C17.9401 4.05001 18.5796 3.77892 19.2461 3.78869C19.9236 3.77762 20.5751 4.04806 21.046 4.53555C22.0298 5.51771 22.0311 7.11103 21.049 8.09481C21.048 8.09579 21.047 8.09676 21.046 8.09774C20.622 8.53414 20.0532 8.79579 19.4511 8.8381C19.3831 8.8368 19.3147 8.83615 19.2464 8.83712C19.1803 8.83615 19.1143 8.8368 19.0482 8.8381C18.455 8.79579 17.8959 8.53349 17.4842 8.09806C16.5033 7.11331 16.5033 5.52064 17.4842 4.53588L17.4835 4.53555ZM21.049 16.9482C21.049 16.9482 21.047 16.9502 21.046 16.9511C20.5742 17.4367 19.9233 17.7068 19.2461 17.698C18.5802 17.7058 17.9411 17.435 17.4835 16.9511C16.5027 15.9664 16.5027 14.3737 17.4835 13.3889C17.878 12.9695 18.4094 12.7104 18.9766 12.6541C19.0661 12.657 19.1559 12.6584 19.2461 12.6574C19.3392 12.6587 19.4316 12.6574 19.524 12.6541C20.0994 12.7104 20.6399 12.9688 21.0457 13.3893C22.0295 14.3714 22.0308 15.9647 21.0486 16.9485L21.049 16.9482Z" fill="#000000"/>
</g>
</svg>
